<svg xmlns="http://www.w3.org/2000/svg" width="204.9" height="68.3" viewBox="0 0 204.9 68.3"><path fill="#5A9DCE" d="M1.4 47.1h201.9v19.1H1.4z"/><path d="M15.1 53.2l-2.7.8c-.4-1-1.1-1.4-2.3-1.4-1.2 0-1.9.4-1.9 1.1 0 .3.1.5.3.7.2.2.8.4 1.6.5 1.4.2 2.4.5 3 .8.6.3 1.2.7 1.6 1.2.4.6.7 1.2.7 1.9 0 1.1-.5 2-1.4 2.8-.9.8-2.3 1.2-4.2 1.2-1.4 0-2.6-.3-3.5-.8s-1.6-1.4-1.9-2.5l2.9-.6c.3 1.1 1.2 1.7 2.7 1.7.7 0 1.3-.1 1.6-.4.4-.3.5-.6.5-.9 0-.4-.2-.6-.5-.8-.3-.2-.9-.4-1.9-.5-1.7-.3-2.9-.8-3.7-1.3-.7-.6-1.1-1.4-1.1-2.4 0-1.1.4-2 1.3-2.7.9-.7 2-1.1 3.5-1.1 2.9-.1 4.6.8 5.4 2.7zm12-.3h-6.4v2.5h5v2.3h-5v2.6h6.4v2.4h-9.6V50.6h9.6v2.3zm5.1 5v4.8H29V50.6h5.9c1.1 0 2 .1 2.6.3s1.2.6 1.6 1.3.7 1.3.7 2c0 1.5-.8 2.5-2.3 3.1l2.5 5.4h-3.5l-2.1-4.8h-2.2zm0-5.2v3.1h1.9c.6 0 1.1 0 1.4-.1.3-.1.5-.3.8-.5.2-.3.3-.6.3-.9 0-.3-.1-.6-.3-.9-.2-.3-.5-.4-.7-.5-.3-.1-.8-.1-1.5-.1h-1.9zM52 50.6l-4.1 12.1h-3.4l-4-12.1h3.4l2.7 8.7 2.8-8.7H52zm4.4 0v12.1h-3.1V50.6h3.1zm13.5 4.5l-3.3.2c0-1.7-.8-2.6-2.2-2.6-1.6 0-2.5 1.3-2.5 3.9 0 1.5.2 2.5.7 3.1.4.5 1.1.8 1.9.8 1.3 0 2.1-.8 2.4-2.3l3.1.2c-.2 1.4-.8 2.5-1.8 3.3-1 .8-2.2 1.1-3.7 1.1-1.8 0-3.2-.6-4.3-1.7s-1.7-2.6-1.7-4.6c0-1.8.5-3.3 1.6-4.5 1.1-1.2 2.5-1.7 4.4-1.7 3.2.1 5 1.7 5.4 4.8zm11.4-2.2h-6.4v2.5h5v2.3h-5v2.6h6.4v2.4h-9.6V50.6h9.6v2.3zm11.2.3l-2.7.8c-.4-1-1.1-1.4-2.3-1.4-1.2 0-1.9.4-1.9 1.1 0 .3.1.5.3.7.2.2.8.4 1.6.5 1.4.2 2.4.5 3 .8.6.3 1.2.7 1.6 1.2.4.6.7 1.2.7 1.9 0 1.1-.5 2-1.4 2.8-.9.8-2.3 1.2-4.2 1.2-1.4 0-2.6-.3-3.5-.8s-1.6-1.4-1.9-2.5l2.9-.6c.3 1.1 1.2 1.7 2.7 1.7.7 0 1.3-.1 1.6-.4.4-.3.5-.6.5-.9 0-.4-.2-.6-.5-.8-.3-.2-.9-.4-1.9-.5-1.7-.3-2.9-.8-3.7-1.3-.7-.6-1.1-1.4-1.1-2.4 0-1.1.4-2 1.3-2.7.9-.7 2-1.1 3.5-1.1 3-.1 4.6.8 5.4 2.7zm16.9-2.6v7.5c0 1.2-.2 2.1-.5 2.7-.3.6-.9 1.1-1.8 1.5-.9.4-2 .6-3.3.6s-2.4-.2-3.2-.5-1.4-.8-1.8-1.5-.6-1.6-.6-2.8v-7.5h3.5v7.5c0 .7.1 1.1.2 1.4.1.3.4.6.8.7.4.2.8.3 1.4.3.6 0 1.1-.1 1.5-.3.4-.2.6-.4.8-.7.1-.3.2-.8.2-1.5v-7.5h2.8zm13.3 0v12.1h-2.8l-5.5-8.2v8.1H112v-12h3.5l4.7 7.1c0-.4-.1-.6-.1-.8v-6.3h2.6zm6.1 9.7h5.6v2.4h-8.9V50.6h3.3v9.7zm10.5-9.7v12.1H136V50.6h3.3zm9 12.1l-3.4-9.9v9.9h-2.7V50.6h5.1l2.4 7.2 2.6-7.2h5.1v12.1H154v-9.9l-3.5 9.9h-2.2zm15.1-12.1v12.1h-3.3V50.6h3.3zm11.6 0V53h-3.5v9.7h-3.3V53h-3.5v-2.4H175zm11.4 2.3h-6.6v2.5h5.2v2.3h-5.2v2.6h6.6v2.4h-10V50.6h10v2.3zm1.9-2.3h4.3c1.7 0 3 .2 3.9.6.9.4 1.6 1.1 2.3 2 .7.9 1 2 1 3.4 0 1.7-.6 3.2-1.8 4.3-1.2 1.2-2.8 1.7-4.9 1.7h-4.8v-12zm3.2 2.2v7.6h1.3c1.2 0 2.1-.4 2.7-1.2s.9-1.7.9-2.7c0-.7-.2-1.4-.5-2-.3-.6-.7-1.1-1.2-1.3-.5-.3-1.1-.4-1.8-.4h-1.4z" fill="#FFF"/><g fill="#0F497D"><path d="M43.2 35.2v1.7c-3.8 3.2-7.4 5.9-10.6 8-3.2 2.1-6.3 3.7-9.4 4.9-3.1 1.1-6 1.7-8.9 1.7-2.5 0-4.6-.4-6.4-1.1-1.8-.7-3.1-1.8-4-3.3s-1.2-3.1-1.2-5c0-1.5.3-3.2 1-4.9.7-1.7 1.6-3.5 2.8-5.2 1.2-1.8 2.7-3.6 4.5-5.5 1.8-1.9 3.9-3.8 6.3-5.9 2.5-2.1 5-4 7.4-5.5 2.4-1.6 4.7-2.8 6.6-3.7 2-.9 3.8-1.5 5.5-2 1.7-.4 3.1-.7 4.2-.7s2.1.2 2.9.6c.8.4 1.4 1 1.8 1.8.4.8.7 1.7.7 2.8 0 2-.9 4.1-2.6 6.6-1.8 2.4-3.9 4.7-6.6 7-2.6 2.2-5.1 4.1-7.5 5.5-2.4 1.4-4.1 2.1-5.2 2.1-.7 0-1.4-.2-2-.6-.6-.4-.9-.9-.9-1.4 0-1 .7-2.2 2.1-3.6 1.4-1.4 2.9-2.7 4.5-3.9 1.6-1.2 2.6-1.8 2.9-1.8.2 0 .2.1.2.2 0 .2-.1.4-.4.8-.2.4-.4.6-.4.7 0 .1.1.2.2.2.4 0 1.5-.8 3.4-2.4 1.8-1.6 3.5-3.3 5.1-5.2 1.5-1.9 2.3-3.5 2.3-4.7 0-.5-.1-.9-.4-1.2-.3-.3-.7-.4-1.3-.4-1.6 0-4 1-7.3 3s-6.6 4.5-10 7.5-6.3 6.2-8.5 9.5c-2.3 3.3-3.4 6.1-3.4 8.6 0 1.4.3 2.6.8 3.6.6 1 1.4 1.7 2.5 2.2 1.1.5 2.4.8 3.9.8 3.3 0 7.1-1 11.3-2.9 4.4-2.2 9.1-5.1 14.1-8.9z"/><path d="M59.3 35v2c-4.8 4.8-8.7 7.2-11.6 7.2-1.6 0-2.9-.7-3.8-2-.9-1.3-1.4-3.1-1.4-5.3 0-1.8.5-3.9 1.6-6.3s2.6-4.9 4.4-7.4c1.8-2.5 3.7-4.7 5.7-6.6 2-1.9 3.8-3.2 5.5-3.9.7-.3 1.2-.5 1.6-.5.5 0 .8.2 1 .5.2.3.2.9.2 1.7 0 2.4-1.3 5.4-3.9 8.9-2.6 3.4-6.2 7-10.8 10.7-.2.9-.3 1.6-.3 2.1 0 1.1.3 2 .9 2.7.6.7 1.5 1 2.6 1 .6 0 1.2-.2 1.8-.5s1.4-.8 2.1-1.3c.8-.5 2.2-1.5 4.4-3zM49 30.3c1.2-.9 2.3-1.9 3.4-3s2.2-2.3 3.1-3.6c1-1.3 1.8-2.4 2.3-3.5.6-1 .8-1.8.8-2.3 0-.4-.2-.6-.5-.6-.1 0-.4.1-.8.3-1.4.9-3 2.6-4.7 5.1s-2.8 5.1-3.6 7.6z"/><path d="M64.4 36.3v.7c0 1 .3 1.8 1 2.4.7.6 1.5.9 2.6.9s2.3-.2 3.5-.6c1.2-.4 2.4-.9 3.6-1.6 1.2-.7 2.6-1.5 4.3-2.7V37c-2.6 2.4-5 4.2-7.3 5.4-2.3 1.3-4.6 1.9-6.9 1.9-2 0-3.6-.6-4.8-1.8s-1.8-2.8-1.8-4.9c0-1.8.6-3.5 1.7-5s2.9-3.1 5.5-4.7c1.7-1.1 3.5-2 5.2-2.6 1.7-.6 3.2-.9 4.6-.9 1.1 0 1.9.2 2.6.6.6.4.9.9.9 1.7 0 1.1-.5 2.2-1.6 3.3-1.1 1.1-2.7 2.2-4.9 3.2s-5 2.1-8.2 3.1zm.4-1.7c2.1-.6 3.8-1.4 5.3-2.3 1.5-.9 2.5-1.8 3.2-2.6.7-.8 1-1.4 1-1.8 0-.4-.2-.6-.7-.6-.4 0-1.1.2-2 .6-.9.4-1.9.9-2.8 1.6-.9.6-1.8 1.4-2.6 2.3s-1.2 1.7-1.4 2.8z"/><path d="M83.4 30.7c3.5-2.4 6.8-4.2 10.1-5.3s5.8-1.7 7.6-1.7c.5 0 .9.2 1.3.5s.7.7 1 1.1c.2.4.4.7.4.9 0 .3-.2.5-.5.7-.3.1-.9.3-1.7.5.2.3.4.6.6 1.1.3.4.4.8.6 1.1.1.3.2.5.2.7 0 .4-.6 1.2-1.7 2.3-1.1 1.1-1.9 2-2.3 2.5-.4.5-.7 1.2-.7 2 0 1.3.8 1.9 2.3 1.9 1.6 0 4.1-1.1 7.5-3.4V37c-5.8 4.9-9.9 7.3-12.4 7.3-.9 0-1.5-.2-1.9-.7-.4-.4-.6-1.1-.6-2 0-1.4.7-3.4 2-6-3.3 2.8-5.8 4.8-7.4 6-1.6 1.2-3 1.8-4 1.8-.5 0-1.1-.3-1.9-1s-1.4-1.5-2-2.6c-.6-1.1-.9-2.1-.9-3.3 0-.8.1-1.5.3-2 .2-.5.6-1.1 1.2-1.7.7-.4 1.6-1.2 2.9-2.1zm16.4-2.9c-5.9 2.1-10.2 3.8-12.7 5.3-2.5 1.4-3.8 2.9-3.8 4.5 0 .6.1 1 .4 1.4s.6.5 1 .5c.3 0 .7-.1 1.3-.4 2.4-1.1 4.6-2.5 6.6-4.2 2.1-1.8 4.4-4.1 7.2-7.1z"/><path d="M130.9 30.6c-4 3.4-6 5.8-6 7.1 0 .7.4 1.1 1.2 1.1.7 0 1.5-.3 2.6-.8s2.7-1.5 5-2.8V37c-3.2 2.4-5.7 4.2-7.5 5.3-1.7 1.1-3.1 1.6-4.2 1.6-1.9 0-2.8-.9-2.8-2.8 0-.6.1-1.1.3-1.6.2-.5.5-1.1.9-1.7s1-1.4 1.8-2.5 1.8-2.3 2.8-3.7c-1.3.5-2.9 1.5-4.9 3-1.3.9-2.4 1.8-3.3 2.7-.9.8-1.8 1.8-2.9 2.8-1 1-1.8 1.7-2.2 2.1s-.9.5-1.4.5c-.7 0-1.4-.6-2-1.7-.6-1.2-.9-2.5-.9-4.1 0-1 .1-1.7.4-2.2.3-.5.8-1.3 1.7-2.3 1.6-1.8 2.9-3.2 4.1-4.1 1.1-.9 2.2-1.3 3.3-1.3.7 0 1.3.1 1.8.3.4.2.7.5.7.9 0 .2-.1.4-.2.5-.1.2-.3.4-.5.5-.2.2-.5.5-1.1.9-3.6 3-5.4 5-5.4 5.9 0 .5.2.8.7.8.3 0 .8-.3 1.6-1s1.8-1.5 3-2.6 2.7-2.2 4.4-3.4c1.7-1.2 3.6-2.3 5.8-3.4 1.2-.6 2.2-1 3-1 .4 0 .7.4 1.1 1.1.4.8.5 1.5.5 2.3.1.4-.4 1-1.4 1.8z"/><path d="M149.8 35.3v1.9c-2.2 2.2-4.3 3.8-6.2 4.9-1.9 1.1-3.5 1.7-4.9 1.7-1.9 0-3.3-.7-4.2-2.2-.9-1.5-1.4-3.1-1.4-4.9 0-.7.1-1.3.3-1.9.2-.6.4-1.1.7-1.5s.7-1 1.4-1.9c3.2-3.8 6.2-5.8 8.9-5.8 1.4 0 2.1.4 2.1 1.2 0 .6-.5 1.4-1.4 2.6-.9 1.2-1.7 2-2.4 2.5-2 1.5-3.3 2.5-3.9 3-.6.6-.9 1.2-.9 2 0 .6.3 1.1.9 1.6s1.4.6 2.4.6c1.1 0 2.3-.3 3.5-.9 1.4-.6 3.1-1.6 5.1-2.9zm-2.3-11.6c-.6 0-1.1-.2-1.6-.5s-.8-.7-.8-1.3c0-.8.5-1.6 1.4-2.6 1-.9 2-1.4 3-1.4.7 0 1.3.2 1.7.5.5.3.7.8.7 1.4 0 .7-.5 1.6-1.4 2.5-.9.9-1.9 1.4-3 1.4z"/><path d="M172.6 30.6c-4 3.4-6 5.8-6 7.1 0 .7.4 1.1 1.2 1.1.7 0 1.5-.3 2.6-.8s2.7-1.5 5-2.8V37c-3.2 2.4-5.7 4.2-7.5 5.3-1.7 1.1-3.1 1.6-4.2 1.6-1.9 0-2.8-.9-2.8-2.8 0-.6.1-1.1.3-1.6.2-.5.5-1.1.9-1.7s1-1.4 1.8-2.5 1.8-2.3 2.8-3.7c-1.3.5-2.9 1.5-4.9 3-1.3.9-2.4 1.8-3.3 2.7-.9.8-1.8 1.8-2.9 2.8-1 1-1.8 1.7-2.2 2.1s-.9.5-1.4.5c-.7 0-1.4-.6-2-1.7-.6-1.2-.9-2.5-.9-4.1 0-1 .1-1.7.4-2.2.3-.5.8-1.3 1.7-2.3 1.6-1.8 2.9-3.2 4.1-4.1 1.1-.9 2.2-1.3 3.3-1.3.7 0 1.3.1 1.8.3.4.2.7.5.7.9 0 .2-.1.4-.2.5-.1.2-.3.4-.5.5-.2.2-.5.5-1.1.9-3.6 3-5.4 5-5.4 5.9 0 .5.2.8.7.8.3 0 .8-.3 1.6-1s1.8-1.5 3-2.6 2.7-2.2 4.4-3.4c1.7-1.2 3.6-2.3 5.8-3.4 1.2-.6 2.2-1 3-1 .4 0 .7.4 1.1 1.1.4.8.5 1.5.5 2.3.1.4-.4 1-1.4 1.8z"/><path d="M202.4 37.1L191 44.2c-3.2 4.2-6.1 7.3-8.7 9.4-2.6 2.1-4.6 3.1-5.9 3.1-.7 0-1-.3-1-1 0-1.3.8-2.9 2.5-4.8.7-.8 1.4-1.5 2.3-2.2.9-.7 1.7-1.4 2.4-1.9.8-.5 1.8-1.2 3-2 1.3-.8 2.1-1.3 2.6-1.6 2.3-3.5 3.9-6.3 4.9-8.1-2.1 1.7-4 3.2-5.6 4.3-1.6 1.1-3.1 2-4.4 2.6-1.3.6-2.5.9-3.6.9-1.2 0-2.2-.7-3.2-2.1-1-1.4-1.5-2.9-1.5-4.4 0-.7.2-1.4.6-2.2.4-.8 1.1-1.6 2-2.5.9-.9 2-1.8 3.4-2.7s3-1.8 4.9-2.7c3.5-1.7 6.3-2.5 8.3-2.5 1.5 0 2.2.4 2.2 1.2 0 1.1-1.6 2.2-4.8 3.3-1.9.6-3.9 1.5-5.8 2.6s-3.4 2.2-4.6 3.4-1.8 2.3-1.8 3.2c0 .5.1.8.4 1.1.3.3.7.4 1.2.4.8 0 1.7-.3 2.7-.8 1-.6 2.5-1.5 4.6-2.9.9-.6 2.1-1.7 3.6-3.1 1.5-1.4 2.8-2.5 3.8-3.3 1-.8 1.9-1.1 2.7-1.1.5 0 .8.1 1.1.3.3.2.4.5.4 1 0 .8-.4 2-1.2 3.5-.8 1.5-2.3 4-4.5 7.5l8.3-4.6v1.6z"/></g></svg>