<?xml version="1.0" encoding="utf-8"?>
<!-- Generator: Adobe Illustrator 21.1.0, SVG Export Plug-In . SVG Version: 6.00 Build 0)  -->
<svg version="1.1" id="Layer_1" xmlns="http://www.w3.org/2000/svg" xmlns:xlink="http://www.w3.org/1999/xlink" x="0px" y="0px"
	 width="204.9px" height="68.3px" viewBox="0 0 204.9 68.3" enable-background="new 0 0 204.9 68.3" xml:space="preserve">
<metadata><?xpacket begin="﻿" id="W5M0MpCehiHzreSzNTczkc9d"?>
<x:xmpmeta xmlns:x="adobe:ns:meta/" x:xmptk="Adobe XMP Core 5.6-c137 79.159768, 2016/08/11-13:24:42        ">
   <rdf:RDF xmlns:rdf="http://www.w3.org/1999/02/22-rdf-syntax-ns#">
      <rdf:Description rdf:about=""
            xmlns:ExtensisFontSense="http://www.extensis.com/meta/FontSense/">
         <ExtensisFontSense:slug>
            <rdf:Bag>
               <rdf:li>
                  <rdf:Description>
                     <ExtensisFontSense:Family>Brush Script MT</ExtensisFontSense:Family>
                     <ExtensisFontSense:Version>1.52</ExtensisFontSense:Version>
                     <ExtensisFontSense:OutlineFileSize>0</ExtensisFontSense:OutlineFileSize>
                     <ExtensisFontSense:KerningChecksum>0</ExtensisFontSense:KerningChecksum>
                     <ExtensisFontSense:Foundry>Monotype Typography</ExtensisFontSense:Foundry>
                     <ExtensisFontSense:FontKind>OpenType - TT</ExtensisFontSense:FontKind>
                     <ExtensisFontSense:Checksum>1222815175</ExtensisFontSense:Checksum>
                     <ExtensisFontSense:PostScriptName>BrushScriptMT</ExtensisFontSense:PostScriptName>
                     <ExtensisFontSense:FontSense_1.2_Checksum>1222815175</ExtensisFontSense:FontSense_1.2_Checksum>
                  </rdf:Description>
               </rdf:li>
               <rdf:li>
                  <rdf:Description>
                     <ExtensisFontSense:Family>Franklin Gothic Demi</ExtensisFontSense:Family>
                     <ExtensisFontSense:Version>1.00</ExtensisFontSense:Version>
                     <ExtensisFontSense:OutlineFileSize>0</ExtensisFontSense:OutlineFileSize>
                     <ExtensisFontSense:KerningChecksum>0</ExtensisFontSense:KerningChecksum>
                     <ExtensisFontSense:Foundry>International Typeface Corp</ExtensisFontSense:Foundry>
                     <ExtensisFontSense:FontKind>TrueType</ExtensisFontSense:FontKind>
                     <ExtensisFontSense:Checksum>716459615</ExtensisFontSense:Checksum>
                     <ExtensisFontSense:PostScriptName>FranklinGothic-Demi</ExtensisFontSense:PostScriptName>
                     <ExtensisFontSense:FontSense_1.2_Checksum>716459615</ExtensisFontSense:FontSense_1.2_Checksum>
                  </rdf:Description>
               </rdf:li>
            </rdf:Bag>
         </ExtensisFontSense:slug>
      </rdf:Description>
   </rdf:RDF>
</x:xmpmeta>
                                                                                                    
                                                                                                    
                                                                                                    
                                                                                                    
                                                                                                    
                                                                                                    
                                                                                                    
                                                                                                    
                                                                                                    
                                                                                                    
                                                                                                    
                                                                                                    
                                                                                                    
                                                                                                    
                                                                                                    
                                                                                                    
                                                                                                    
                                                                                                    
                                                                                                    
                                                                                                    
                           
<?xpacket end="w"?></metadata>
<rect x="1.4" y="47.1" fill="#5A9DCE" width="201.9" height="19.1"/>
<g>
	<path fill="#FFFFFF" d="M15.1,53.2L12.4,54c-0.4-1-1.1-1.4-2.3-1.4c-1.2,0-1.9,0.4-1.9,1.1c0,0.3,0.1,0.5,0.3,0.7
		c0.2,0.2,0.8,0.4,1.6,0.5c1.4,0.2,2.4,0.5,3,0.8c0.6,0.3,1.2,0.7,1.6,1.2c0.4,0.6,0.7,1.2,0.7,1.9c0,1.1-0.5,2-1.4,2.8
		c-0.9,0.8-2.3,1.2-4.2,1.2c-1.4,0-2.6-0.3-3.5-0.8s-1.6-1.4-1.9-2.5l2.9-0.6c0.3,1.1,1.2,1.7,2.7,1.7c0.7,0,1.3-0.1,1.6-0.4
		c0.4-0.3,0.5-0.6,0.5-0.9c0-0.4-0.2-0.6-0.5-0.8c-0.3-0.2-0.9-0.4-1.9-0.5c-1.7-0.3-2.9-0.8-3.7-1.3c-0.7-0.6-1.1-1.4-1.1-2.4
		c0-1.1,0.4-2,1.3-2.7c0.9-0.7,2-1.1,3.5-1.1C12.6,50.4,14.3,51.3,15.1,53.2z"/>
	<path fill="#FFFFFF" d="M27.1,52.9h-6.4v2.5h5v2.3h-5v2.6h6.4v2.4h-9.6V50.6h9.6V52.9z"/>
	<path fill="#FFFFFF" d="M32.2,57.9v4.8H29V50.6h5.9c1.1,0,2,0.1,2.6,0.3s1.2,0.6,1.6,1.3s0.7,1.3,0.7,2c0,1.5-0.8,2.5-2.3,3.1
		l2.5,5.4h-3.5l-2.1-4.8H32.2z M32.2,52.7v3.1h1.9c0.6,0,1.1,0,1.4-0.1c0.3-0.1,0.5-0.3,0.8-0.5c0.2-0.3,0.3-0.6,0.3-0.9
		c0-0.3-0.1-0.6-0.3-0.9c-0.2-0.3-0.5-0.4-0.7-0.5c-0.3-0.1-0.8-0.1-1.5-0.1H32.2z"/>
	<path fill="#FFFFFF" d="M52,50.6l-4.1,12.1h-3.4l-4-12.1h3.4l2.7,8.7l2.8-8.7H52z"/>
	<path fill="#FFFFFF" d="M56.4,50.6v12.1h-3.1V50.6H56.4z"/>
	<path fill="#FFFFFF" d="M69.9,55.1l-3.3,0.2c0-1.7-0.8-2.6-2.2-2.6c-1.6,0-2.5,1.3-2.5,3.9c0,1.5,0.2,2.5,0.7,3.1
		c0.4,0.5,1.1,0.8,1.9,0.8c1.3,0,2.1-0.8,2.4-2.3l3.1,0.2c-0.2,1.4-0.8,2.5-1.8,3.3c-1,0.8-2.2,1.1-3.7,1.1c-1.8,0-3.2-0.6-4.3-1.7
		s-1.7-2.6-1.7-4.6c0-1.8,0.5-3.3,1.6-4.5c1.1-1.2,2.5-1.7,4.4-1.7C67.7,50.4,69.5,52,69.9,55.1z"/>
	<path fill="#FFFFFF" d="M81.3,52.9h-6.4v2.5h5v2.3h-5v2.6h6.4v2.4h-9.6V50.6h9.6V52.9z"/>
	<path fill="#FFFFFF" d="M92.5,53.2L89.8,54c-0.4-1-1.1-1.4-2.3-1.4c-1.2,0-1.9,0.4-1.9,1.1c0,0.3,0.1,0.5,0.3,0.7
		c0.2,0.2,0.8,0.4,1.6,0.5c1.4,0.2,2.4,0.5,3,0.8c0.6,0.3,1.2,0.7,1.6,1.2c0.4,0.6,0.7,1.2,0.7,1.9c0,1.1-0.5,2-1.4,2.8
		c-0.9,0.8-2.3,1.2-4.2,1.2c-1.4,0-2.6-0.3-3.5-0.8s-1.6-1.4-1.9-2.5l2.9-0.6c0.3,1.1,1.2,1.7,2.7,1.7c0.7,0,1.3-0.1,1.6-0.4
		c0.4-0.3,0.5-0.6,0.5-0.9c0-0.4-0.2-0.6-0.5-0.8c-0.3-0.2-0.9-0.4-1.9-0.5c-1.7-0.3-2.9-0.8-3.7-1.3c-0.7-0.6-1.1-1.4-1.1-2.4
		c0-1.1,0.4-2,1.3-2.7c0.9-0.7,2-1.1,3.5-1.1C90.1,50.4,91.7,51.3,92.5,53.2z"/>
</g>
<g>
	<g>
		<path fill="#FFFFFF" d="M109.4,50.6v7.5c0,1.2-0.2,2.1-0.5,2.7c-0.3,0.6-0.9,1.1-1.8,1.5c-0.9,0.4-2,0.6-3.3,0.6s-2.4-0.2-3.2-0.5
			s-1.4-0.8-1.8-1.5s-0.6-1.6-0.6-2.8v-7.5h3.5v7.5c0,0.7,0.1,1.1,0.2,1.4c0.1,0.3,0.4,0.6,0.8,0.7c0.4,0.2,0.8,0.3,1.4,0.3
			c0.6,0,1.1-0.1,1.5-0.3c0.4-0.2,0.6-0.4,0.8-0.7c0.1-0.3,0.2-0.8,0.2-1.5v-7.5H109.4z"/>
		<path fill="#FFFFFF" d="M122.7,50.6v12.1h-2.8l-5.5-8.2c0,0.2,0,0.3,0,0.4c0,0.2,0,0.4,0,0.5v7.2H112V50.6h3.5l4.7,7.1
			c0-0.4-0.1-0.6-0.1-0.8v-6.3H122.7z"/>
		<path fill="#FFFFFF" d="M128.8,60.3h5.6v2.4h-8.9V50.6h3.3V60.3z"/>
		<path fill="#FFFFFF" d="M139.3,50.6v12.1H136V50.6H139.3z"/>
		<path fill="#FFFFFF" d="M148.3,62.7l-3.4-9.9v9.9h-2.7V50.6h5.1l2.4,7.2l2.6-7.2h5.1v12.1H154v-9.9l-3.5,9.9H148.3z"/>
		<path fill="#FFFFFF" d="M163.4,50.6v12.1h-3.3V50.6H163.4z"/>
		<path fill="#FFFFFF" d="M175,50.6V53h-3.5v9.7h-3.3V53h-3.5v-2.4H175z"/>
		<path fill="#FFFFFF" d="M186.4,52.9h-6.6v2.5h5.2v2.3h-5.2v2.6h6.6v2.4h-10V50.6h10V52.9z"/>
		<path fill="#FFFFFF" d="M188.3,50.6h4.3c1.7,0,3,0.2,3.9,0.6c0.9,0.4,1.6,1.1,2.3,2c0.7,0.9,1,2,1,3.4c0,1.7-0.6,3.2-1.8,4.3
			c-1.2,1.2-2.8,1.7-4.9,1.7h-4.8V50.6z M191.5,52.8v7.6h1.3c1.2,0,2.1-0.4,2.7-1.2s0.9-1.7,0.9-2.7c0-0.7-0.2-1.4-0.5-2
			c-0.3-0.6-0.7-1.1-1.2-1.3c-0.5-0.3-1.1-0.4-1.8-0.4H191.5z"/>
	</g>
</g>
<g>
	<g>
		<path fill="#0F497D" d="M43.2,35.2v1.7c-3.8,3.2-7.4,5.9-10.6,8c-3.2,2.1-6.3,3.7-9.4,4.9c-3.1,1.1-6,1.7-8.9,1.7
			c-2.5,0-4.6-0.4-6.4-1.1c-1.8-0.7-3.1-1.8-4-3.3S2.7,44,2.7,42.1c0-1.5,0.3-3.2,1-4.9c0.7-1.7,1.6-3.5,2.8-5.2
			c1.2-1.8,2.7-3.6,4.5-5.5c1.8-1.9,3.9-3.8,6.3-5.9c2.5-2.1,5-4,7.4-5.5c2.4-1.6,4.7-2.8,6.6-3.7c2-0.9,3.8-1.5,5.5-2
			c1.7-0.4,3.1-0.7,4.2-0.7c1.1,0,2.1,0.2,2.9,0.6c0.8,0.4,1.4,1,1.8,1.8c0.4,0.8,0.7,1.7,0.7,2.8c0,2-0.9,4.1-2.6,6.6
			c-1.8,2.4-3.9,4.7-6.6,7c-2.6,2.2-5.1,4.1-7.5,5.5c-2.4,1.4-4.1,2.1-5.2,2.1c-0.7,0-1.4-0.2-2-0.6c-0.6-0.4-0.9-0.9-0.9-1.4
			c0-1,0.7-2.2,2.1-3.6c1.4-1.4,2.9-2.7,4.5-3.9c1.6-1.2,2.6-1.8,2.9-1.8c0.2,0,0.2,0.1,0.2,0.2c0,0.2-0.1,0.4-0.4,0.8
			c-0.2,0.4-0.4,0.6-0.4,0.7c0,0.1,0.1,0.2,0.2,0.2c0.4,0,1.5-0.8,3.4-2.4c1.8-1.6,3.5-3.3,5.1-5.2c1.5-1.9,2.3-3.5,2.3-4.7
			c0-0.5-0.1-0.9-0.4-1.2c-0.3-0.3-0.7-0.4-1.3-0.4c-1.6,0-4,1-7.3,3c-3.3,2-6.6,4.5-10,7.5s-6.3,6.2-8.5,9.5
			c-2.3,3.3-3.4,6.1-3.4,8.6c0,1.4,0.3,2.6,0.8,3.6c0.6,1,1.4,1.7,2.5,2.2c1.1,0.5,2.4,0.8,3.9,0.8c3.3,0,7.1-1,11.3-2.9
			C33.5,41.9,38.2,39,43.2,35.2z"/>
		<path fill="#0F497D" d="M59.3,35V37c-4.8,4.8-8.7,7.2-11.6,7.2c-1.6,0-2.9-0.7-3.8-2c-0.9-1.3-1.4-3.1-1.4-5.3
			c0-1.8,0.5-3.9,1.6-6.3s2.6-4.9,4.4-7.4c1.8-2.5,3.7-4.7,5.7-6.6c2-1.9,3.8-3.2,5.5-3.9c0.7-0.3,1.2-0.5,1.6-0.5
			c0.5,0,0.8,0.2,1,0.5c0.2,0.3,0.2,0.9,0.2,1.7c0,2.4-1.3,5.4-3.9,8.9C56,26.7,52.4,30.3,47.8,34c-0.2,0.9-0.3,1.6-0.3,2.1
			c0,1.1,0.3,2,0.9,2.7c0.6,0.7,1.5,1,2.6,1c0.6,0,1.2-0.2,1.8-0.5s1.4-0.8,2.1-1.3C55.7,37.5,57.1,36.5,59.3,35z M49,30.3
			c1.2-0.9,2.3-1.9,3.4-3c1.1-1.1,2.2-2.3,3.1-3.6c1-1.3,1.8-2.4,2.3-3.5c0.6-1,0.8-1.8,0.8-2.3c0-0.4-0.2-0.6-0.5-0.6
			c-0.1,0-0.4,0.1-0.8,0.3c-1.4,0.9-3,2.6-4.7,5.1S49.8,27.8,49,30.3z"/>
		<path fill="#0F497D" d="M64.4,36.3v0.7c0,1,0.3,1.8,1,2.4c0.7,0.6,1.5,0.9,2.6,0.9c1.1,0,2.3-0.2,3.5-0.6c1.2-0.4,2.4-0.9,3.6-1.6
			c1.2-0.7,2.6-1.5,4.3-2.7v1.6c-2.6,2.4-5,4.2-7.3,5.4c-2.3,1.3-4.6,1.9-6.9,1.9c-2,0-3.6-0.6-4.8-1.8s-1.8-2.8-1.8-4.9
			c0-1.8,0.6-3.5,1.7-5c1.1-1.5,2.9-3.1,5.5-4.7c1.7-1.1,3.5-2,5.2-2.6c1.7-0.6,3.2-0.9,4.6-0.9c1.1,0,1.9,0.2,2.6,0.6
			c0.6,0.4,0.9,0.9,0.9,1.7c0,1.1-0.5,2.2-1.6,3.3c-1.1,1.1-2.7,2.2-4.9,3.2C70.4,34.2,67.6,35.3,64.4,36.3z M64.8,34.6
			c2.1-0.6,3.8-1.4,5.3-2.3c1.5-0.9,2.5-1.8,3.2-2.6c0.7-0.8,1-1.4,1-1.8c0-0.4-0.2-0.6-0.7-0.6c-0.4,0-1.1,0.2-2,0.6
			c-0.9,0.4-1.9,0.9-2.8,1.6c-0.9,0.6-1.8,1.4-2.6,2.3S65,33.5,64.8,34.6z"/>
		<path fill="#0F497D" d="M83.4,30.7c3.5-2.4,6.8-4.2,10.1-5.3s5.8-1.7,7.6-1.7c0.5,0,0.9,0.2,1.3,0.5c0.4,0.3,0.7,0.7,1,1.1
			c0.2,0.4,0.4,0.7,0.4,0.9c0,0.3-0.2,0.5-0.5,0.7c-0.3,0.1-0.9,0.3-1.7,0.5c0.2,0.3,0.4,0.6,0.6,1.1c0.3,0.4,0.4,0.8,0.6,1.1
			c0.1,0.3,0.2,0.5,0.2,0.7c0,0.4-0.6,1.2-1.7,2.3c-1.1,1.1-1.9,2-2.3,2.5c-0.4,0.5-0.7,1.2-0.7,2c0,1.3,0.8,1.9,2.3,1.9
			c1.6,0,4.1-1.1,7.5-3.4V37c-5.8,4.9-9.9,7.3-12.4,7.3c-0.9,0-1.5-0.2-1.9-0.7c-0.4-0.4-0.6-1.1-0.6-2c0-1.4,0.7-3.4,2-6
			c-3.3,2.8-5.8,4.8-7.4,6c-1.6,1.2-3,1.8-4,1.8c-0.5,0-1.1-0.3-1.9-1s-1.4-1.5-2-2.6c-0.6-1.1-0.9-2.1-0.9-3.3c0-0.8,0.1-1.5,0.3-2
			c0.2-0.5,0.6-1.1,1.2-1.7C81.2,32.4,82.1,31.6,83.4,30.7z M99.8,27.8c-5.9,2.1-10.2,3.8-12.7,5.3c-2.5,1.4-3.8,2.9-3.8,4.5
			c0,0.6,0.1,1,0.4,1.4s0.6,0.5,1,0.5c0.3,0,0.7-0.1,1.3-0.4c2.4-1.1,4.6-2.5,6.6-4.2C94.7,33.1,97,30.8,99.8,27.8z"/>
		<path fill="#0F497D" d="M130.9,30.6c-4,3.4-6,5.8-6,7.1c0,0.7,0.4,1.1,1.2,1.1c0.7,0,1.5-0.3,2.6-0.8c1.1-0.5,2.7-1.5,5-2.8V37
			c-3.2,2.4-5.7,4.2-7.5,5.3c-1.7,1.1-3.1,1.6-4.2,1.6c-1.9,0-2.8-0.9-2.8-2.8c0-0.6,0.1-1.1,0.3-1.6c0.2-0.5,0.5-1.1,0.9-1.7
			s1-1.4,1.8-2.5c0.8-1.1,1.8-2.3,2.8-3.7c-1.3,0.5-2.9,1.5-4.9,3c-1.3,0.9-2.4,1.8-3.3,2.7c-0.9,0.8-1.8,1.8-2.9,2.8
			c-1,1-1.8,1.7-2.2,2.1s-0.9,0.5-1.4,0.5c-0.7,0-1.4-0.6-2-1.7c-0.6-1.2-0.9-2.5-0.9-4.1c0-1,0.1-1.7,0.4-2.2
			c0.3-0.5,0.8-1.3,1.7-2.3c1.6-1.8,2.9-3.2,4.1-4.1c1.1-0.9,2.2-1.3,3.3-1.3c0.7,0,1.3,0.1,1.8,0.3c0.4,0.2,0.7,0.5,0.7,0.9
			c0,0.2-0.1,0.4-0.2,0.5c-0.1,0.2-0.3,0.4-0.5,0.5c-0.2,0.2-0.5,0.5-1.1,0.9c-3.6,3-5.4,5-5.4,5.9c0,0.5,0.2,0.8,0.7,0.8
			c0.3,0,0.8-0.3,1.6-1c0.8-0.7,1.8-1.5,3-2.6c1.2-1.1,2.7-2.2,4.4-3.4c1.7-1.2,3.6-2.3,5.8-3.4c1.2-0.6,2.2-1,3-1
			c0.4,0,0.7,0.4,1.1,1.1c0.4,0.8,0.5,1.5,0.5,2.3C132.4,29.2,131.9,29.8,130.9,30.6z"/>
		<path fill="#0F497D" d="M149.8,35.3v1.9c-2.2,2.2-4.3,3.8-6.2,4.9c-1.9,1.1-3.5,1.7-4.9,1.7c-1.9,0-3.3-0.7-4.2-2.2
			c-0.9-1.5-1.4-3.1-1.4-4.9c0-0.7,0.1-1.3,0.3-1.9c0.2-0.6,0.4-1.1,0.7-1.5s0.7-1,1.4-1.9c3.2-3.8,6.2-5.8,8.9-5.8
			c1.4,0,2.1,0.4,2.1,1.2c0,0.6-0.5,1.4-1.4,2.6c-0.9,1.2-1.7,2-2.4,2.5c-2,1.5-3.3,2.5-3.9,3c-0.6,0.6-0.9,1.2-0.9,2
			c0,0.6,0.3,1.1,0.9,1.6s1.4,0.6,2.4,0.6c1.1,0,2.3-0.3,3.5-0.9C146.1,37.6,147.8,36.6,149.8,35.3z M147.5,23.7
			c-0.6,0-1.1-0.2-1.6-0.5s-0.8-0.7-0.8-1.3c0-0.8,0.5-1.6,1.4-2.6c1-0.9,2-1.4,3-1.4c0.7,0,1.3,0.2,1.7,0.5
			c0.5,0.3,0.7,0.8,0.7,1.4c0,0.7-0.5,1.6-1.4,2.5C149.6,23.2,148.6,23.7,147.5,23.7z"/>
		<path fill="#0F497D" d="M172.6,30.6c-4,3.4-6,5.8-6,7.1c0,0.7,0.4,1.1,1.2,1.1c0.7,0,1.5-0.3,2.6-0.8c1.1-0.5,2.7-1.5,5-2.8V37
			c-3.2,2.4-5.7,4.2-7.5,5.3c-1.7,1.1-3.1,1.6-4.2,1.6c-1.9,0-2.8-0.9-2.8-2.8c0-0.6,0.1-1.1,0.3-1.6c0.2-0.5,0.5-1.1,0.9-1.7
			s1-1.4,1.8-2.5c0.8-1.1,1.8-2.3,2.8-3.7c-1.3,0.5-2.9,1.5-4.9,3c-1.3,0.9-2.4,1.8-3.3,2.7c-0.9,0.8-1.8,1.8-2.9,2.8
			c-1,1-1.8,1.7-2.2,2.1s-0.9,0.5-1.4,0.5c-0.7,0-1.4-0.6-2-1.7c-0.6-1.2-0.9-2.5-0.9-4.1c0-1,0.1-1.7,0.4-2.2
			c0.3-0.5,0.8-1.3,1.7-2.3c1.6-1.8,2.9-3.2,4.1-4.1c1.1-0.9,2.2-1.3,3.3-1.3c0.7,0,1.3,0.1,1.8,0.3c0.4,0.2,0.7,0.5,0.7,0.9
			c0,0.2-0.1,0.4-0.2,0.5c-0.1,0.2-0.3,0.4-0.5,0.5c-0.2,0.2-0.5,0.5-1.1,0.9c-3.6,3-5.4,5-5.4,5.9c0,0.5,0.2,0.8,0.7,0.8
			c0.3,0,0.8-0.3,1.6-1c0.8-0.7,1.8-1.5,3-2.6c1.2-1.1,2.7-2.2,4.4-3.4c1.7-1.2,3.6-2.3,5.8-3.4c1.2-0.6,2.2-1,3-1
			c0.4,0,0.7,0.4,1.1,1.1c0.4,0.8,0.5,1.5,0.5,2.3C174.1,29.2,173.6,29.8,172.6,30.6z"/>
		<path fill="#0F497D" d="M202.4,37.1L191,44.2c-3.2,4.2-6.1,7.3-8.7,9.4c-2.6,2.1-4.6,3.1-5.9,3.1c-0.7,0-1-0.3-1-1
			c0-1.3,0.8-2.9,2.5-4.8c0.7-0.8,1.4-1.5,2.3-2.2c0.9-0.7,1.7-1.4,2.4-1.9c0.8-0.5,1.8-1.2,3-2c1.3-0.8,2.1-1.3,2.6-1.6
			c2.3-3.5,3.9-6.3,4.9-8.1c-2.1,1.7-4,3.2-5.6,4.3c-1.6,1.1-3.1,2-4.4,2.6c-1.3,0.6-2.5,0.9-3.6,0.9c-1.2,0-2.2-0.7-3.2-2.1
			c-1-1.4-1.5-2.9-1.5-4.4c0-0.7,0.2-1.4,0.6-2.2c0.4-0.8,1.1-1.6,2-2.5c0.9-0.9,2-1.8,3.4-2.7s3-1.8,4.9-2.7
			c3.5-1.7,6.3-2.5,8.3-2.5c1.5,0,2.2,0.4,2.2,1.2c0,1.1-1.6,2.2-4.8,3.3c-1.9,0.6-3.9,1.5-5.8,2.6c-1.9,1.1-3.4,2.2-4.6,3.4
			s-1.8,2.3-1.8,3.2c0,0.5,0.1,0.8,0.4,1.1c0.3,0.3,0.7,0.4,1.2,0.4c0.8,0,1.7-0.3,2.7-0.8c1-0.6,2.5-1.5,4.6-2.9
			c0.9-0.6,2.1-1.7,3.6-3.1c1.5-1.4,2.8-2.5,3.8-3.3c1-0.8,1.9-1.1,2.7-1.1c0.5,0,0.8,0.1,1.1,0.3c0.3,0.2,0.4,0.5,0.4,1
			c0,0.8-0.4,2-1.2,3.5c-0.8,1.5-2.3,4-4.5,7.5l8.3-4.6V37.1z"/>
	</g>
</g>
<g>
</g>
<g>
</g>
<g>
</g>
<g>
</g>
<g>
</g>
<g>
</g>
</svg>
